<svg xmlns="http://www.w3.org/2000/svg" width="30" height="30.672" viewBox="0 0 30 30.672">
  <g id="layer1" transform="translate(-0.526 -289.061)">
    <path id="path1002" d="M1.578,289.061a1.084,1.084,0,0,0-1.052,1.108v28.465a1.083,1.083,0,0,0,1.067,1.1H29.454a1.1,1.1,0,0,0,0-2.19H2.67V290.169a1.108,1.108,0,0,0-.317-.79,1.058,1.058,0,0,0-.776-.317Zm27.851,7.119a1.061,1.061,0,0,0-.734.332L17.7,307.747l-4.6-5.173a1.055,1.055,0,0,0-1.511-.073l-6.43,6.022a1.113,1.113,0,0,0-.067,1.548,1.056,1.056,0,0,0,1.515.068l5.639-5.278,4.626,5.205a1.055,1.055,0,0,0,1.548.041l11.784-12.05a1.113,1.113,0,0,0,.235-1.207,1.07,1.07,0,0,0-1.012-.668Z" transform="translate(0 0)" fill="#fff"/>
  </g>
</svg>

