<svg xmlns="http://www.w3.org/2000/svg" width="21.9" height="30" viewBox="0 0 21.9 30">
  <g id="humidity" transform="translate(-64)">
    <g id="그룹_19" data-name="그룹 19" transform="translate(64)">
      <g id="그룹_18" data-name="그룹 18">
        <path id="패스_14" data-name="패스 14" d="M80.018,6.611A57.508,57.508,0,0,1,75.737.461a.9.9,0,0,0-1.571,0,57.485,57.485,0,0,1-4.281,6.148C66.858,10.573,64,14.318,64,18.75a10.954,10.954,0,1,0,21.9,0C85.9,14.319,83.044,10.575,80.018,6.611ZM74.95,28.125a9.263,9.263,0,0,1-9.125-9.375c0-3.786,2.668-7.281,5.5-10.984,1.234-1.616,2.5-3.276,3.63-5.053,1.13,1.778,2.4,3.439,3.63,5.055,2.827,3.7,5.5,7.2,5.5,10.982A9.263,9.263,0,0,1,74.95,28.125Z" transform="translate(-64 0)" fill="#fff"/>
      </g>
    </g>
    <g id="그룹_21" data-name="그룹 21" transform="translate(69.056 10.74)">
      <g id="그룹_20" data-name="그룹 20">
        <path id="패스_15" data-name="패스 15" d="M163.366,192a3.366,3.366,0,1,0,3.366,3.366A3.37,3.37,0,0,0,163.366,192Zm0,4.487a1.122,1.122,0,1,1,1.122-1.122A1.122,1.122,0,0,1,163.366,196.487Z" transform="translate(-160 -192)" fill="#fff"/>
      </g>
    </g>
    <g id="그룹_23" data-name="그룹 23" transform="translate(74.113 18.116)">
      <g id="그룹_22" data-name="그룹 22">
        <path id="패스_16" data-name="패스 16" d="M259.366,352a3.366,3.366,0,1,0,3.366,3.366A3.37,3.37,0,0,0,259.366,352Zm0,4.487a1.122,1.122,0,1,1,1.122-1.122A1.125,1.125,0,0,1,259.366,356.487Z" transform="translate(-256 -352)" fill="#fff"/>
      </g>
    </g>
    <g id="그룹_25" data-name="그룹 25" transform="translate(68.219 11.578)">
      <g id="그룹_24" data-name="그룹 24">
        <path id="패스_17" data-name="패스 17" d="M173.125,224.352a1.123,1.123,0,0,0-1.586,0L160.32,235.571a1.122,1.122,0,0,0,1.586,1.586l11.218-11.219A1.123,1.123,0,0,0,173.125,224.352Z" transform="translate(-159.992 -224.024)" fill="#fff"/>
      </g>
    </g>
  </g>
</svg>
