<svg xmlns="http://www.w3.org/2000/svg" width="30" height="19.727" viewBox="0 0 30 19.727">
  <g id="speedometer" transform="translate(38 -165.394)">
    <g id="그룹_26" data-name="그룹 26" transform="translate(-38 165.394)">
      <path id="패스_18" data-name="패스 18" d="M754.24,584.4l-.007-.2-.007-.2,0-.05v-.1l-.006-.082-.026-.331-.006-.083-.01-.108-.02-.216-.021-.215-.011-.107-.013-.1c-.036-.26-.068-.516-.114-.762-.022-.123-.042-.244-.064-.362l-.072-.345c-.044-.224-.1-.433-.147-.627l-.035-.142-.037-.135-.07-.248c-.022-.078-.042-.151-.063-.218l-.058-.183-.066-.2a.156.156,0,0,0-.191-.1l-5.072,1.445a.156.156,0,0,0-.11.178l.019.1.024.126c.008.046.015.1.023.15l.026.17c0,.03.01.06.014.092l.011.1c.014.132.035.274.045.426l.019.232c0,.08.007.161.012.243.011.165.009.336.012.509v.064l0,.057,0,.114,0,.114v.057l0,.082q-.007.166-.014.331l0,.083v.013c0,.012,0-.1,0-.05v.02l0,.033-.012.129-.011.128-.015.126c-.011.084-.017.167-.031.247l-.034.238-.039.226c-.012.074-.027.144-.041.213s-.026.135-.041.2l-.042.181-.019.083-.019.067-.01.039h6.2a.155.155,0,0,0,.156-.148.013.013,0,0,0,0,0l.016-.355.007-.371c0-.126,0-.254,0-.383Q754.241,584.5,754.24,584.4Z" transform="translate(-724.244 -566.125)" fill="#fff"/>
      <path id="패스_19" data-name="패스 19" d="M658.675,337.677a.156.156,0,0,0,.083-.211l-.06-.126-.07-.148-.107-.218-.123-.247c-.022-.045-.044-.083-.066-.125l-.069-.127c-.047-.087-.1-.177-.148-.27l-.166-.284-.087-.148-.093-.149-.193-.307c-.138-.2-.276-.417-.429-.624l-.114-.157-.057-.079-.059-.077-.239-.31c-.081-.1-.165-.2-.248-.3-.042-.05-.082-.1-.125-.149l-.128-.145-.127-.144c-.042-.048-.084-.1-.127-.141l-.255-.271c-.084-.089-.17-.172-.253-.256s-.164-.164-.246-.24l-.237-.222c-.076-.072-.154-.137-.227-.2l-.21-.184-.194-.16-.171-.14c-.053-.043-.1-.081-.148-.115l-.163-.125a.156.156,0,0,0-.215.024l-2.722,3.3a.155.155,0,0,0,.01.21l.079.078c.028.028.061.059.094.094l.108.114.123.129.131.147c.045.052.094.1.141.161l.146.176c.051.059.1.124.151.189s.1.13.154.2l.153.21c.026.035.052.071.076.108l.075.111.076.111c.025.037.048.076.073.114.048.077.1.152.145.23l.138.234.034.058.032.059.064.118c.088.154.163.314.241.463l.105.226.051.109.046.108.089.207.077.2.036.092c.011.029.025.061.032.085l.05.145.045.127.05.148.044.132a.156.156,0,0,0,.206.095Z" transform="translate(-630.292 -325.915)" fill="#fff"/>
      <path id="패스_20" data-name="패스 20" d="M452.045,238.436l.137.019.16.028.182.031c.055.009.113.023.173.035l1.718-3.514-.252-.039c-.057-.008-.113-.018-.168-.025l-.165-.02-.315-.037-.3-.025c-.095-.007-.185-.017-.272-.021l-.245-.012-.215-.01-.183,0-.2,0a.156.156,0,0,0-.157.148l-.157,3.271a.156.156,0,0,0,.134.162Z" transform="translate(-437.525 -232.559)" fill="#fff"/>
      <path id="패스_21" data-name="패스 21" d="M596.238,270.505l.131.1.115.083.062.045.061.046.112.083a.156.156,0,0,0,.223-.039l2.243-3.417a.155.155,0,0,0-.052-.22l-.121-.069-.066-.038-.079-.045-.207-.114-.235-.128-.248-.124c-.087-.042-.175-.09-.271-.132l-.293-.134c-.1-.047-.205-.09-.312-.135s-.215-.092-.328-.134l-.086-.033-.968,4.2c.053.034.1.069.154.1Z" transform="translate(-577.101 -262.828)" fill="#fff"/>
      <path id="패스_22" data-name="패스 22" d="M190.177,241.288c.043-.006.086-.013.128-.017l.126-.013.241-.025.226-.015.106-.007c.034,0,.069-.005.1-.005l.173,0,.152,0h.3a.156.156,0,0,0,.154-.166l-.2-3.081a.156.156,0,0,0-.175-.144l-.138.017-.161.02-.224.033-.254.039c-.046.006-.088.015-.132.023l-.135.026-.287.055-.3.069-.158.036c-.053.013-.107.028-.161.042l-.332.088-.34.1c-.057.018-.115.034-.173.053l-.173.059-.174.06c-.058.02-.116.04-.174.062l-.346.132c-.115.045-.228.095-.342.142l-.169.072-.166.077-.164.076c-.054.025-.109.05-.161.077l-.313.158c-.1.052-.2.108-.3.161s-.192.1-.282.159l-.263.156c-.085.05-.164.1-.242.152l-.221.142-.2.134-.171.118c-.053.036-.1.073-.143.1l-.148.11a.155.155,0,0,0-.036.213l1.279,1.881a.155.155,0,0,0,.205.048l.115-.065c.038-.021.079-.046.126-.07l.151-.079.171-.089.193-.092c.068-.031.136-.067.21-.1l.227-.1c.077-.036.159-.067.242-.1s.166-.069.254-.1l.264-.1c.044-.017.09-.031.136-.046l.137-.044.138-.045.14-.04c.094-.026.188-.055.282-.079l.284-.07c.047-.012.094-.022.142-.032l.141-.03.14-.03c.047-.009.093-.016.139-.025l.273-.047Z" transform="translate(-178.668 -235.429)" fill="#fff"/>
      <path id="패스_23" data-name="패스 23" d="M25.416,360.3l-.1.143-.1.144c-.034.048-.065.1-.1.147-.065.1-.131.2-.195.3l-.186.3-.046.075-.044.077-.087.152c-.118.2-.221.406-.325.6l-.143.293-.069.142-.063.14-.121.269-.105.254c-.033.082-.066.159-.095.234l-.08.213-.07.187-.055.161-.055.163a.155.155,0,0,0,.092.195l1.191.457a.156.156,0,0,0,.2-.078l.062-.13.065-.136.082-.158.093-.179c.033-.063.071-.128.109-.2l.119-.212.134-.222.07-.116.075-.116.155-.24c.112-.159.221-.325.345-.487l.091-.122.046-.061.048-.06.191-.241c.065-.079.133-.157.2-.235.033-.039.065-.078.1-.116l.1-.112.1-.111c.033-.037.067-.074.1-.109l.2-.21c.066-.069.136-.133.2-.2s.13-.127.2-.185l.188-.171c.06-.056.122-.105.18-.155l.166-.141.147-.116.128-.1c.018-.015.043-.033.064-.049l.061-.046.111-.084a.156.156,0,0,0,.024-.225l-1.356-1.588a.156.156,0,0,0-.226-.011l-.1.1-.055.053c-.02.019-.038.036-.063.061l-.15.152-.17.173-.175.19c-.06.067-.125.134-.188.208l-.2.227c-.068.077-.134.16-.2.244s-.138.169-.206.258l-.205.272C25.483,360.21,25.449,360.257,25.416,360.3Z" transform="translate(-22.632 -352.013)" fill="#fff"/>
      <path id="패스_24" data-name="패스 24" d="M.321,597.753l-.028.136-.032.157c-.011.059-.023.128-.035.2l-.039.227c-.007.04-.014.081-.02.122l-.017.126c-.022.172-.052.357-.068.555l-.03.3c-.008.1-.014.21-.021.317-.017.215-.02.438-.027.664l0,.085v.256q0,.086,0,.171v.086l0,.086.014.342,0,.085v.028l0,.021,0,.041.012.164.012.162.016.168.016.165.008.082.01.08.04.312.046.3c.014.1.032.19.048.28l0,.021a.156.156,0,0,0,.153.127h.42a.156.156,0,0,0,.155-.165q0-.036,0-.072c-.005-.087-.012-.177-.014-.269l-.009-.284q0-.145,0-.3v-.076l0-.075,0-.152,0-.154.008-.162.008-.164,0-.041v-.023c0-.007,0,.006,0,0v-.015l.006-.08L1,601.273l.007-.08.009-.08.018-.159.018-.158.009-.079.012-.078c.032-.208.059-.412.1-.607.019-.1.035-.194.055-.288l.061-.274c.037-.178.084-.344.123-.5l.029-.112c.01-.036.021-.07.031-.1l.057-.191c.018-.061.033-.115.051-.169l.051-.152.044-.132a.156.156,0,0,0-.108-.2l-1.052-.281A.155.155,0,0,0,.321,597.753Z" transform="translate(0 -583.892)" fill="#fff"/>
      <path id="패스_25" data-name="패스 25" d="M345.652,181.975a2.42,2.42,0,0,0,3.239-1.112,2.544,2.544,0,0,0,.184-.52l2.45-10.633.933-4.049.578-2.509a.4.4,0,0,0-.4-.491.381.381,0,0,0-.35.226l-1.176,2.406-1.735,3.549-4.837,9.894A2.422,2.422,0,0,0,345.652,181.975Zm1.152-3.424a1.187,1.187,0,1,1-1.187,1.187A1.187,1.187,0,0,1,346.8,178.551Z" transform="translate(-333.421 -162.661)" fill="#fff"/>
    </g>
  </g>
</svg>
