<svg xmlns="http://www.w3.org/2000/svg" width="22" height="27.345" viewBox="0 0 22 27.345">
  <path id="Temperature" d="M4.222,5.7A5.857,5.857,0,0,1,10.333,0a5.857,5.857,0,0,1,6.111,5.7V16.749a6.93,6.93,0,0,1,1.222,3.76,7.119,7.119,0,0,1-7.333,6.836A7.119,7.119,0,0,1,3,20.509a6.636,6.636,0,0,1,1.222-3.76Zm6.111-3.418A3.485,3.485,0,0,0,6.667,5.7V17.091a1.546,1.546,0,0,1-.244.684,4.433,4.433,0,0,0-.978,2.735,4.746,4.746,0,0,0,4.889,4.558,4.746,4.746,0,0,0,4.889-4.558,4.433,4.433,0,0,0-.978-2.735A1.546,1.546,0,0,1,14,17.091V5.7A3.485,3.485,0,0,0,10.333,2.279ZM9.111,12.533v6.039a2.187,2.187,0,0,0-1.222,1.937,2.373,2.373,0,0,0,2.444,2.279,2.373,2.373,0,0,0,2.444-2.279,2.187,2.187,0,0,0-1.222-1.937V12.533a1.117,1.117,0,0,0-1.222-1.139,1.117,1.117,0,0,0-1.222,1.139Zm11-10.255a1.117,1.117,0,0,0-1.222,1.139,1.117,1.117,0,0,0,1.222,1.139h3.667A1.117,1.117,0,0,0,25,3.418a1.117,1.117,0,0,0-1.222-1.139Zm0,4.558a1.142,1.142,0,1,0,0,2.279h1.222a1.142,1.142,0,1,0,0-2.279Zm0,4.558a1.142,1.142,0,1,0,0,2.279h3.667a1.142,1.142,0,1,0,0-2.279Zm0,4.558a1.142,1.142,0,1,0,0,2.279h1.222a1.142,1.142,0,1,0,0-2.279Z" transform="translate(-3)" fill="#fff" fill-rule="evenodd"/>
</svg>
